<svg width="20" height="20" viewBox="0 0 20 20" fill="none" xmlns="http://www.w3.org/2000/svg">
<path fill-rule="evenodd" clip-rule="evenodd" d="M10.0003 4.225C10.9658 3.16687 12.3185 2.54461 13.7503 2.5C16.2816 2.5 18.3336 4.55203 18.3336 7.08333C18.3336 10.0802 15.0022 13.3646 13.0041 15.3344C12.8242 15.5118 12.6552 15.6785 12.5003 15.8333L10.6003 17.7333C10.4832 17.8506 10.3243 17.9165 10.1586 17.9167H9.842C9.67629 17.9165 9.51743 17.8506 9.40033 17.7333L7.50033 15.8333C7.34546 15.6785 7.17638 15.5118 6.9965 15.3344C4.99845 13.3646 1.66699 10.0802 1.66699 7.08333C1.66699 4.55203 3.71902 2.5 6.25033 2.5C7.68208 2.54461 9.0348 3.16687 10.0003 4.225ZM10.0003 15.975L11.8336 14.1667C13.5253 12.5 16.667 9.38333 16.667 7.08333C16.667 6.30543 16.3563 5.55975 15.8039 5.01205C15.2515 4.46434 14.5032 4.16 13.7253 4.16667C12.4297 4.28694 11.2602 4.99293 10.5503 6.08333C10.4708 6.18724 10.3478 6.24872 10.217 6.25H9.84199C9.64729 6.24947 9.46336 6.16057 9.34199 6.00833C8.64333 4.95812 7.50652 4.28094 6.25033 4.16667C4.6395 4.16667 3.33366 5.4725 3.33366 7.08333C3.33366 9.38333 6.47533 12.5 8.16699 14.1667L10.0003 15.975Z" fill="black"/>
</svg>
